# xmcd
#
# Track frame offsets: 
#        150
#        19570
#        36703
#        52725
#        75338
#        96040
#        121234
#        138752
#        167280
#        189251
#        212941
#        234539
#
# Disc length: 3518 seconds
#
# Revision: 1
# Processed by: cddbd v1.5.2PL0 Copyright (c) Steve Scherf et al.
# Submitted via: ExactAudioCopyFreeDBPlugin 1.0
#
DISCID=8b0dbc0c
DTITLE=Matt Patershuk - Same as I Ever Have Been
DYEAR=2017
DGENRE=Americana
TTITLE0=Sometimes You've Got to Do Bad Things to Do Good
TTITLE1=Gypsy
TTITLE2=Hot Knuckle Blues
TTITLE3=Good Luck
TTITLE4=Memory and the First Law of Thermodynamics
TTITLE5=Boreal
TTITLE6=Blank Pages and Lost Wages
TTITLE7=Cheap Guitar
TTITLE8=Same as I Ever Have Been
TTITLE9=Atlas
TTITLE10=Sparrows
TTITLE11=Swans
EXTD=
EXTT0=
EXTT1=
EXTT2=
EXTT3=
EXTT4=
EXTT5=
EXTT6=
EXTT7=
EXTT8=
EXTT9=
EXTT10=
EXTT11=
PLAYORDER=
